<svg width="178" height="56" viewBox="0 0 178 56" fill="none" xmlns="http://www.w3.org/2000/svg">
<g clip-path="url(#clip0_152_178)">
<path d="M36.7683 0C40.177 0 42.9401 5.29082 42.9401 9.77423C42.9401 14.2576 40.177 17.892 36.7683 17.892C33.3595 17.892 30.5971 14.2576 30.5971 9.77423C30.5971 5.29082 33.3595 0 36.7683 0Z" fill="#FF6F3F"/>
<path d="M19.2317 0C22.6405 0 25.4036 5.29082 25.4036 9.77423C25.4036 14.2576 22.6405 17.892 19.2317 17.892C15.823 17.892 13.0599 14.2576 13.0599 9.77423C13.0599 5.29082 15.823 0 19.2317 0Z" fill="#FF6F3F"/>
<path d="M0.747769 23.6435C-0.701643 19.946 -0.0658858 14.6256 2.82371 13.4477C5.71331 12.2699 9.76443 15.6804 11.2125 19.3786C12.6606 23.0768 11.4912 27.0291 8.60094 28.2069C5.71068 29.3847 2.1952 27.3417 0.747769 23.6435Z" fill="#FF6F3F"/>
<path d="M55.2522 23.6435C53.8028 27.341 50.2887 29.3847 47.3991 28.2069C44.5095 27.0291 43.34 23.0768 44.7875 19.3786C46.2349 15.6804 50.2867 12.2699 53.1763 13.4477C56.0659 14.6256 56.6997 19.9453 55.2522 23.6435Z" fill="#FF6F3F"/>
<path d="M50.0811 44.0717C49.4223 41.0424 47.8411 38.3109 46.0959 35.7798C42.0059 29.849 35.4566 23.8604 28 23.8604C20.5744 23.8604 13.9947 29.8476 9.90409 35.7798C8.15887 38.3109 6.58098 41.0424 5.91887 44.0717C5.25675 47.101 5.6191 50.4872 7.45788 52.9457C9.29665 55.4043 12.7799 56.6345 15.5034 55.3027C17.1228 54.5115 18.4339 52.9141 20.2199 52.7609C21.8604 52.6197 23.3098 53.7471 24.6775 54.689C25.6658 55.3706 26.8582 55.9898 28 55.9979C29.1417 55.9898 30.3335 55.3706 31.3224 54.689C32.6902 53.7478 34.1396 52.6197 35.78 52.7609C37.5661 52.9141 38.8765 54.5088 40.4966 55.3027C43.2201 56.6345 46.7033 55.4063 48.5421 52.9457C50.3809 50.4852 50.7432 47.1003 50.0811 44.0717ZM34.4953 40.4232C33.654 41.9917 32.3265 43.3732 31.2052 44.4488C30.6044 45.0249 29.9715 45.5652 29.3097 46.067L29.3058 46.0704C28.9272 46.354 28.4697 46.507 28 46.507C27.5303 46.507 27.0728 46.354 26.6942 46.0704L26.6903 46.067C26.0285 45.5652 25.3956 45.0249 24.7948 44.4488C23.6748 43.3732 22.346 41.9917 21.5047 40.4232C20.8096 39.1271 20.4466 37.7046 20.8063 36.2215C21.1515 34.8003 22.2504 33.5512 23.5984 33.3771C25.1572 33.1754 26.9722 34.2948 28 35.5802C29.0278 34.2948 30.8428 33.1754 32.4016 33.3771C33.7495 33.5512 34.8485 34.8003 35.1937 36.2215C35.5534 37.7032 35.1904 39.1271 34.4953 40.4232Z" fill="#FF6F3F"/>
</g>
<path d="M68.204 18.996H66.608V27.088H68.204C69.492 27.088 70.4813 26.724 71.172 25.996C71.8813 25.2493 72.236 24.26 72.236 23.028C72.236 21.7773 71.8813 20.7973 71.172 20.088C70.4813 19.36 69.492 18.996 68.204 18.996ZM63.808 16.392H69.044C69.1 16.392 69.156 16.392 69.212 16.392C72.292 16.392 74.5787 17.344 76.072 19.248C76.8933 20.2933 77.304 21.5533 77.304 23.028C77.304 24.5027 76.8933 25.7533 76.072 26.78C74.56 28.7027 72.2173 29.664 69.044 29.664H66.58V34.116C66.58 35.124 66.888 35.7867 67.504 36.104C66.7947 36.9067 65.936 37.308 64.928 37.308C63.0987 37.308 62.184 36.1973 62.184 33.976V19.556C62.184 18.604 61.8667 17.96 61.232 17.624C61.9227 16.8027 62.7813 16.392 63.808 16.392ZM86.3727 27.732C86.7087 27.6947 86.9607 27.592 87.1287 27.424C87.2967 27.2373 87.3807 26.892 87.3807 26.388C87.3807 25.884 87.2314 25.4267 86.9327 25.016C86.6527 24.5867 86.2607 24.372 85.7567 24.372C85.2527 24.372 84.7767 24.6893 84.3287 25.324C83.8807 25.9587 83.5821 26.8827 83.4327 28.096L86.3727 27.732ZM86.8487 34.256C88.3981 34.256 89.6954 33.668 90.7407 32.492C91.1701 32.6787 91.3847 33.0707 91.3847 33.668C91.3847 34.564 90.8527 35.3947 89.7887 36.16C88.7247 36.9253 87.4741 37.308 86.0367 37.308C83.8154 37.308 82.0794 36.7013 80.8287 35.488C79.5967 34.2747 78.9807 32.5387 78.9807 30.28C78.9807 28.0027 79.6621 26.0613 81.0247 24.456C82.3874 22.8507 84.1141 22.048 86.2047 22.048C87.8101 22.048 89.1354 22.5707 90.1807 23.616C91.2261 24.6427 91.7487 25.8187 91.7487 27.144C91.7487 28.1707 91.5061 28.908 91.0207 29.356C90.5354 29.804 89.7047 30.0467 88.5287 30.084L83.3487 30.224C83.4794 32.912 84.6461 34.256 86.8487 34.256ZM99.3138 25.044V32.604C99.3138 33.78 99.7711 34.368 100.686 34.368C101.694 34.368 102.627 33.9107 103.486 32.996C103.747 32.996 103.962 33.108 104.13 33.332C104.316 33.5373 104.41 33.8173 104.41 34.172C104.41 34.9373 103.943 35.656 103.01 36.328C102.076 36.9813 100.919 37.308 99.5378 37.308C98.1751 37.308 97.0644 36.9627 96.2058 36.272C95.3471 35.5813 94.9178 34.5267 94.9178 33.108V25.044C94.2458 25.0253 93.7418 24.8667 93.4058 24.568C93.0698 24.2507 92.9018 23.8587 92.9018 23.392C92.9018 22.9253 93.0978 22.552 93.4898 22.272C93.9378 22.328 94.4138 22.356 94.9178 22.356V21.516C94.9178 20.5453 94.6004 19.892 93.9658 19.556C94.6751 18.7533 95.5151 18.352 96.4858 18.352C97.4751 18.352 98.1938 18.6227 98.6418 19.164C99.0898 19.7053 99.3138 20.5453 99.3138 21.684V22.356H103.542C103.672 22.5053 103.738 22.692 103.738 22.916C103.738 23.4947 103.42 23.9987 102.786 24.428C102.17 24.8387 101.087 25.044 99.5378 25.044H99.3138ZM122.738 20.256C122.738 20.9467 122.514 21.5067 122.066 21.936C121.637 22.3467 121.04 22.552 120.274 22.552C119.509 22.552 118.79 22.3093 118.118 21.824C118.268 21.5253 118.342 21.1427 118.342 20.676C118.342 20.1907 118.062 19.7613 117.502 19.388C116.961 19.0147 116.177 18.828 115.15 18.828C114.142 18.828 113.312 19.0147 112.658 19.388C112.005 19.7613 111.678 20.2653 111.678 20.9C111.678 21.516 112.07 22.0947 112.854 22.636C113.657 23.1587 114.618 23.672 115.738 24.176C116.877 24.6613 118.006 25.1933 119.126 25.772C120.265 26.3507 121.226 27.1067 122.01 28.04C122.813 28.9733 123.214 30.0187 123.214 31.176C123.214 32.968 122.412 34.4427 120.806 35.6C119.22 36.7387 117.288 37.308 115.01 37.308C112.752 37.308 110.838 36.888 109.27 36.048C107.702 35.1893 106.918 34.088 106.918 32.744C106.918 31.96 107.189 31.3347 107.73 30.868C108.29 30.4013 108.953 30.168 109.718 30.168C110.502 30.168 111.268 30.4667 112.014 31.064C111.566 31.4747 111.342 31.9693 111.342 32.548C111.342 33.1267 111.678 33.612 112.35 34.004C113.041 34.396 113.956 34.592 115.094 34.592C116.252 34.592 117.157 34.3587 117.81 33.892C118.482 33.4253 118.818 32.8093 118.818 32.044C118.818 31.26 118.417 30.5693 117.614 29.972C116.83 29.356 115.869 28.8053 114.73 28.32C113.61 27.8347 112.481 27.3213 111.342 26.78C110.222 26.2387 109.261 25.5573 108.458 24.736C107.674 23.896 107.282 22.944 107.282 21.88C107.282 20.1253 108.048 18.7253 109.578 17.68C111.109 16.6347 112.985 16.112 115.206 16.112C117.428 16.112 119.238 16.504 120.638 17.288C122.038 18.072 122.738 19.0613 122.738 20.256ZM131.115 25.044V32.604C131.115 33.78 131.572 34.368 132.487 34.368C133.495 34.368 134.428 33.9107 135.287 32.996C135.548 32.996 135.763 33.108 135.931 33.332C136.117 33.5373 136.211 33.8173 136.211 34.172C136.211 34.9373 135.744 35.656 134.811 36.328C133.877 36.9813 132.72 37.308 131.339 37.308C129.976 37.308 128.865 36.9627 128.007 36.272C127.148 35.5813 126.719 34.5267 126.719 33.108V25.044C126.047 25.0253 125.543 24.8667 125.207 24.568C124.871 24.2507 124.703 23.8587 124.703 23.392C124.703 22.9253 124.899 22.552 125.291 22.272C125.739 22.328 126.215 22.356 126.719 22.356V21.516C126.719 20.5453 126.401 19.892 125.767 19.556C126.476 18.7533 127.316 18.352 128.287 18.352C129.276 18.352 129.995 18.6227 130.443 19.164C130.891 19.7053 131.115 20.5453 131.115 21.684V22.356H135.343C135.473 22.5053 135.539 22.692 135.539 22.916C135.539 23.4947 135.221 23.9987 134.587 24.428C133.971 24.8387 132.888 25.044 131.339 25.044H131.115ZM141.099 15.048C141.827 15.048 142.424 15.272 142.891 15.72C143.376 16.1493 143.619 16.728 143.619 17.456C143.619 18.1653 143.311 18.8187 142.695 19.416C142.098 20.0133 141.407 20.312 140.623 20.312C139.839 20.312 139.204 20.088 138.719 19.64C138.252 19.1733 138.019 18.5667 138.019 17.82C138.019 17.0733 138.346 16.4293 138.999 15.888C139.671 15.328 140.371 15.048 141.099 15.048ZM143.115 25.38V34.116C143.115 35.124 143.423 35.7867 144.039 36.104C143.33 36.9067 142.471 37.308 141.463 37.308C139.634 37.308 138.719 36.1973 138.719 33.976V25.212C138.719 24.2413 138.402 23.588 137.767 23.252C138.476 22.4493 139.316 22.048 140.287 22.048C141.276 22.048 141.995 22.3187 142.443 22.86C142.891 23.4013 143.115 24.2413 143.115 25.38ZM158.757 25.38C158.757 26.0707 158.542 26.612 158.113 27.004C157.684 27.3773 157.114 27.564 156.405 27.564C155.696 27.564 155.061 27.3493 154.501 26.92C154.557 26.696 154.585 26.3973 154.585 26.024C154.585 25.6507 154.473 25.3147 154.249 25.016C154.044 24.7173 153.754 24.568 153.381 24.568C152.653 24.568 152.018 25.0627 151.477 26.052C150.954 27.0413 150.693 28.2733 150.693 29.748C150.693 31.204 151.01 32.324 151.645 33.108C152.298 33.8733 153.148 34.256 154.193 34.256C155.742 34.256 157.04 33.668 158.085 32.492C158.514 32.66 158.729 33.052 158.729 33.668C158.729 34.62 158.197 35.4693 157.133 36.216C156.088 36.944 154.837 37.308 153.381 37.308C151.197 37.308 149.498 36.6827 148.285 35.432C147.072 34.1813 146.465 32.4547 146.465 30.252C146.465 28.0493 147.174 26.136 148.593 24.512C150.012 22.8693 151.832 22.048 154.053 22.048C155.304 22.048 156.396 22.356 157.329 22.972C158.281 23.5693 158.757 24.372 158.757 25.38ZM166.357 18.38V27.816C169.829 26.192 171.565 24.2693 171.565 22.048C172.816 22.048 173.824 22.3 174.589 22.804C175.355 23.308 175.737 24.0173 175.737 24.932C175.737 25.828 175.224 26.6213 174.197 27.312C173.189 28.0027 171.593 28.6747 169.409 29.328C171.22 31.1573 172.564 32.324 173.441 32.828C174.319 33.332 175.299 33.584 176.381 33.584C176.381 34.76 176.101 35.6747 175.541 36.328C174.981 36.9813 174.207 37.308 173.217 37.308C172.228 37.308 171.211 36.8133 170.165 35.824C169.139 34.816 167.869 33.0893 166.357 30.644V34.116C166.357 35.124 166.665 35.7867 167.281 36.104C166.572 36.9067 165.713 37.308 164.705 37.308C162.876 37.308 161.961 36.1973 161.961 33.976V18.212C161.961 17.2787 161.644 16.616 161.009 16.224C161.719 15.44 162.577 15.048 163.585 15.048C165.433 15.048 166.357 16.1587 166.357 18.38Z" fill="#FF6F3F"/>
<defs>
<clipPath id="clip0_152_178">
<rect width="56" height="56" fill="white"/>
</clipPath>
</defs>
</svg>
